<svg version="1" xmlns="http://www.w3.org/2000/svg" width="716" height="716" viewBox="0 0 537.000000 537.000000"><path d="M28 8.4c0 .8-.4 1.6-.8 1.8-1.7.7-5.2 8.1-5.2 11.1 0 1.8-.6 4.1-1.4 5.2-4.8 7-9.5 43.7-14.7 115.5-2.2 29.8-.5 66 5.2 111 2.2 17.6 6.8 39.8 8.6 41.5.7.7 1.5 3.3 1.9 5.7.7 5.1 4.1 17.5 5.5 20 .5 1 .9 2.7.9 3.7 0 1.1 1.4 6.2 3 11.3 1.7 5.1 3 10.6 3 12.2 0 1.7 1.1 6.4 2.5 10.6 1.4 4.1 3.9 13.3 5.6 20.5 3 12.3 3.2 14 3.2 33 0 19.1-.1 20.6-3.1 33-3.8 15.4-5.3 20.6-6.3 22-.4.5-1.3 3.9-2 7.5-.7 3.5-1.8 7.6-2.6 9-.7 1.4-1.3 3.1-1.3 3.7 0 .7-.4 1.3-1 1.3-.5 0-1 .9-1 2.1 0 1.1-1.2 4.6-2.7 7.7-2.1 4.3-2.7 7.2-2.7 11.7 0 5.7 2 12.5 3.7 12.5.4 0 1.1 1 1.6 2.3 1.5 3.9 7.6 5.2 17.4 3.9 4.5-.6 11.9-1.4 16.5-1.8 4.5-.3 8.2-.9 8.2-1.3 0-1.6 24.4-3.1 50.6-3.1 26 0 52.4 1.5 52.4 3.1 0 .3 3.5.9 7.8 1.3 4.2.3 11.6 1.1 16.4 1.8 12.8 1.7 17.1-.1 21.6-9.2 1.4-3 3.2-14 2.2-14-.4 0-2-3.8-3.5-8.5-1.6-4.7-3.2-8.5-3.5-8.5-.8 0-3-7-3-9.5 0-1-.7-2.6-1.5-3.5-.9-1-2.1-4.6-2.7-8.1-.7-3.5-1.4-6.6-1.8-6.9-.3-.3-1.3-2.8-2.2-5.5-5.9-17.9-7.8-42.3-5-62.5 1.7-11.7 4.2-22.9 5.3-23.6.5-.3.9-1.4.9-2.5 0-1 .4-1.9.8-1.9.5 0 1.3-2.6 1.9-5.8 1.4-7.8 4-18 7.3-28.7 1.5-5 3.1-10.6 3.5-12.5.4-1.9 1.5-6 2.5-9s2.4-8.2 2.9-11.5c.6-3.4 2-9.3 3.1-13.3 1.1-3.9 2-9.3 2-11.9 0-2.7 1.2-10.2 2.5-16.8 1.4-6.6 3-17.9 3.5-25 .5-7.2 1.4-18.2 2-24.5 2.5-29.1-.4-94.6-5.7-129-.8-5.2-1.8-14.2-2.2-20-.5-5.8-1.7-14.1-2.9-18.5-1.1-4.4-2.6-10.6-3.2-13.8-.6-3.2-2.6-8.3-4.3-11.3L214.6 7h-93.3C41.5 7 28 7.2 28 8.4zm165 43.5c0 2.7.6 8 1.4 11.8 2 9.8 4.3 28.5 5.6 45.8.7 8.2 1.3 16 1.5 17.2.3 2.2.2 2.2-18.5 2.5l-18.9.3-3 3.5c-6.2 7.5-9.1 32.6-5.5 48.5.9 3.8 2 10.1 2.4 14 .5 3.8 1.7 10.1 2.6 14 .9 3.8 1.7 11.3 1.7 16.5.2 10.4-1.5 15-6.9 19.7-3.1 2.6-9.8 3.9-13.6 2.4-3.3-1.2-7.8-5.1-7.8-6.6 0-.6-1-2.2-2.1-3.4-1.9-2-2.2-3.6-2.3-11.6 0-5.1.5-10.3 1.1-11.6 1.4-3.1 4.3-15.6 4.3-19 0-1.4.9-6.8 2-12 2.1-9.8 2.6-25.6 1.1-33.9-1.4-7.9-3.5-14.5-4.8-15.3-.8-.5-2.2-1.8-3.4-3-2-2.2-2.6-2.2-33.4-2.5l-31.4-.3-.8 4.8c-1.5 9.1-.8 72.5 1 87.3 3 25.2 3.8 30.5 6.8 45.5 1.6 8.2 4 20.8 5.4 28 2.5 13.1 3.3 16.1 6.6 27 5.5 18.4 7 23.5 7.8 27.9.5 2.7 1.3 5.1 1.8 5.5 1.4.9 5.3 13.8 5.3 17.4 0 1.6 1 6.8 2.2 11.6 1.9 7.4 2.2 11.3 2.3 28.1 0 17.2-.3 20.4-2.3 27.4-3.7 13.4-6.5 12.1 24.9 12.1 19.9.1 27.2.4 27.8 1.3.4.7 3.5 1.5 6.8 1.8 3.4.4 6.6 1 7.2 1.3.5.4 1.5 3.6 2 7.2.6 3.6 1.8 8 2.7 9.8.9 1.9 2 4.9 2.4 6.8l.8 3.4-11.1-.8c-14-1-76.3-1-87.8 0l-8.6.8.8-5.2c.4-2.8 1.2-5.6 1.7-6.2 1.9-2.6 4.9-16 6.2-27.2.4-3.9 1.3-11.1 2-16 1.3-9.6.9-31.4-.9-42-.5-3.3-1.5-9.6-2.1-14-.7-4.4-2.2-11.2-3.5-15-1.3-3.9-2.6-8.8-3-11-1-6.3-11.4-40.6-12.6-41.5-.3-.3-1.1-3.9-1.8-8-.6-4.1-1.8-9.5-2.5-12-.8-2.5-1.9-6.8-2.4-9.5-.5-2.8-1.9-9.5-3-15-2.6-12.5-6-34.9-7.2-48-1.7-18.1-1.1-68.8 1-90.5 4.2-43.2 5-49.3 7.6-64.8L50.3 47H193v4.9zM388 35.6c-1.4.2-6.2.9-10.7 1.5-4.6.6-8.3 1.4-8.3 1.8 0 .4-3.4 1.5-7.5 2.5s-7.5 2.1-7.5 2.5c0 .4-2.5 1.5-5.5 2.6-3 1-5.5 2.2-5.5 2.6 0 .4-.9 1-1.9 1.4-1.1.3-3.6 2.1-5.7 4s-4.1 3.5-4.5 3.5c-2.1 0-19.9 19.4-19.9 21.7 0 .5-.9 1.8-1.9 2.7-1.8 1.6-10.8 19-15.9 30.6-1.1 2.5-2.9 8.3-4 13-1.1 4.7-2.6 9.8-3.2 11.5-1.1 2.9-5 29.3-5 34 0 2.1.7 2.3 19.3 4.5 10.5 1.3 19.4 2.6 19.7 3 .3.4 7.5 1.5 16 2.5s15.7 2.2 16 2.6c.3.4 4.2 1 8.6 1.4l8.1.7.7-6.7c1.3-12.9 6.5-31.4 9.8-35.1 1-1.1 1.8-2.5 1.8-3.1 0-1 3.9-5 8.9-9.3 1.3-1.1 4.2-2.5 6.3-3.2 2.1-.6 3.8-1.5 3.8-2 0-.4 3.8-.8 8.5-.8 5 0 8.5.4 8.5 1 0 .5 1.1 1 2.5 1 3 0 8.5 2.6 8.5 4 0 .5.9 1.1 1.9 1.5 1.1.3 3.4 3.3 5.1 6.7 2.8 5.3 3.3 7.4 3.7 15.7.4 8.1.2 10.4-1.5 14.7-2.6 6.5-8.1 14.9-12.7 19.4-1.9 1.9-3.5 3.9-3.5 4.5 0 .7-1.2 2.3-2.7 3.7-2.5 2.2-7.7 7.8-24.3 25.8-2.7 3-5 5.9-5 6.5 0 .6-1.8 2.9-4 5.1-2.2 2.1-4 4.3-4 4.7 0 .5-1.6 2.8-3.5 5.1-1.9 2.4-3.5 4.5-3.5 4.8 0 .3-1.8 3.7-4 7.4-2.2 3.8-4 7.6-4 8.5 0 .8-1.1 4.3-2.5 7.8-3.5 8.6-6.2 25.7-6.9 44.8l-.7 16.3h87l.5-3.3c.3-1.7.7-5.9 1-9.2 1.7-20.3 8.4-34 24.3-50.4 2.4-2.5 4.3-4.8 4.3-5.2 0-.4 4.6-5.3 10.1-11 9.9-10.1 21.9-24 21.9-25.4 0-.4 1.8-2.8 3.9-5.4 10.3-12.3 18-29.5 21.6-48.2 2.7-14.6 1.6-41.2-2.4-56.9-1.5-5.6-6.8-19.3-9.4-24-1-1.9-2.9-5.3-4-7.5-2.4-4.3-13.2-18.3-15.7-20.1-.8-.7-3.6-3.2-6.2-5.7-2.6-2.4-6.1-5-7.7-5.7-1.7-.7-3.3-2-3.6-3-.3-1-1.9-2.3-3.5-3-1.7-.7-3-1.5-3-1.9 0-.4-2.4-1.5-5.2-2.6-2.9-1-5.5-2.2-5.8-2.6-.3-.5-3.7-1.6-7.5-2.6-3.9-1-7.2-2-7.5-2.4-.3-.3-3.4-1.1-7-1.8-6.2-1.3-48.5-2.4-54-1.5zM353 417v53h93V364h-93v53z"/></svg>